<?xml version="1.0" standalone="no"?>
<!DOCTYPE svg PUBLIC "-//W3C//DTD SVG 20010904//EN"
 "http://www.w3.org/TR/2001/REC-SVG-20010904/DTD/svg10.dtd">
<svg version="1.0" xmlns="http://www.w3.org/2000/svg"
 width="550.000000pt" height="550.000000pt" viewBox="0 0 550.000000 550.000000"
 preserveAspectRatio="xMidYMid meet">

<g transform="translate(0.000000,550.000000) scale(0.100000,-0.100000)"
fill="#000000" stroke="none">
<path d="M3090 5434 c-191 -14 -510 -78 -690 -137 -456 -152 -841 -389 -1185
-732 -423 -420 -667 -890 -829 -1591 -42 -181 -108 -535 -101 -542 2 -3 22 13
42 34 109 113 302 280 445 386 32 25 41 42 78 152 22 68 70 182 105 253 111
226 230 388 410 561 278 269 577 425 970 509 121 25 146 27 375 28 215 0 260
-3 365 -23 243 -46 539 -169 721 -298 20 -14 23 -11 68 46 50 64 266 283 273
277 4 -4 -68 -199 -76 -207 -4 -3 -7 -14 -9 -24 -5 -27 -133 -359 -142 -370
-10 -10 -100 50 -100 66 0 6 -2 9 -5 6 -3 -3 -54 24 -113 59 -228 137 -460
226 -727 280 -71 14 -139 18 -320 18 -201 0 -244 -3 -344 -23 -390 -79 -738
-287 -979 -584 -30 -38 -59 -65 -64 -62 -6 4 -9 1 -6 -7 3 -8 -15 -43 -38 -79
-97 -150 -174 -329 -219 -510 -55 -217 -67 -414 -55 -890 5 -158 3 -183 -17
-256 -43 -157 -135 -320 -250 -445 -31 -33 -54 -62 -51 -64 2 -3 36 11 74 30
268 137 580 237 881 281 207 31 602 18 709 -23 14 -5 15 1 9 48 -26 204 -117
382 -289 568 -45 48 -40 47 48 -12 179 -120 321 -325 376 -544 26 -98 44 -289
36 -374 l-6 -66 115 -62 c63 -34 115 -67 115 -72 0 -6 4 -8 8 -5 8 5 256 -130
497 -270 334 -195 732 -453 934 -605 68 -52 132 -100 143 -108 16 -12 18 -11
18 5 0 11 -5 37 -10 59 -35 145 -181 944 -272 1488 l-43 258 -115 61 c-213
113 -529 319 -585 380 -99 108 -322 395 -313 403 10 10 38 -7 38 -24 0 -13 2
-13 9 -2 23 35 787 -291 1122 -480 48 -27 91 -54 97 -61 11 -15 42 -224 68
-462 l18 -160 90 -100 c50 -56 107 -120 127 -144 20 -23 38 -42 42 -42 16 0
15 752 -2 950 -25 294 -66 545 -127 780 -62 237 -192 600 -215 600 -5 0 -35
-13 -67 -29 -31 -16 -84 -40 -117 -54 -33 -14 -89 -39 -125 -55 -348 -160
-855 -352 -1116 -422 -150 -41 -320 -74 -429 -84 -67 -6 -50 0 75 29 125 28
311 88 540 173 261 97 407 160 860 372 96 45 189 88 205 95 22 9 60 56 129
157 185 268 287 392 472 571 188 183 405 344 591 440 46 23 83 44 83 47 -1 9
-112 86 -210 145 -295 179 -632 316 -994 405 -265 65 -402 81 -706 85 -146 1
-290 1 -320 -1z"/>
</g>
</svg>
